<?xml version="1.0" standalone="no"?><!DOCTYPE svg PUBLIC "-//W3C//DTD SVG 1.1//EN" "http://www.w3.org/Graphics/SVG/1.1/DTD/svg11.dtd"><svg t="1618911850020" class="icon" viewBox="0 0 1024 1024" version="1.1" xmlns="http://www.w3.org/2000/svg" p-id="3273" width="32" height="32" xmlns:xlink="http://www.w3.org/1999/xlink"><defs><style type="text/css"></style></defs><path d="M512 232c-154.6 0-280 125.4-280 280s125.4 280 280 280 280-125.4 280-280-125.4-280-280-280z m162.6 442.6c-21.1 21.1-45.7 37.7-73.1 49.3-28.3 12-58.4 18.1-89.5 18.1s-61.2-6.1-89.5-18.1c-27.4-11.6-52-28.2-73.1-49.3-21.1-21.1-37.7-45.7-49.3-73.1-12-28.3-18.1-58.4-18.1-89.5s6.1-61.2 18.1-89.5c11.6-27.4 28.2-52 49.3-73.1 21.1-21.1 45.7-37.7 73.1-49.3 28.3-12 58.4-18.1 89.5-18.1s61.2 6.1 89.5 18.1c27.4 11.6 52 28.2 73.1 49.3 21.1 21.1 37.7 45.7 49.3 73.1 12 28.3 18.1 58.4 18.1 89.5s-6.1 61.2-18.1 89.5c-11.5 27.4-28.1 52-49.3 73.1zM537 165.1h-50v-100h50v100z m-50 693.8h50v100h-50v-100zM249 284.4l-70.7-70.7 35.4-35.4 70.7 70.7-35.4 35.4z m526 455.2l70.7 70.7-35.4 35.4-70.7-70.7 35.4-35.4zM65.1 487h100v50h-100v-50z m893.8 0v50h-100v-50h100zM249 739.6l35.4 35.4-70.7 70.7-35.4-35.4 70.7-70.7z m561.3-561.3l35.4 35.4-70.7 70.7-35.4-35.4 70.7-70.7z" fill="" p-id="3274"></path></svg>