<?xml version="1.0" standalone="no"?><!DOCTYPE svg PUBLIC "-//W3C//DTD SVG 1.1//EN" "http://www.w3.org/Graphics/SVG/1.1/DTD/svg11.dtd"><svg t="1618911930601" class="icon" viewBox="0 0 1024 1024" version="1.1" xmlns="http://www.w3.org/2000/svg" p-id="5425" xmlns:xlink="http://www.w3.org/1999/xlink" width="32" height="32"><defs><style type="text/css"></style></defs><path d="M467.648 927.008A412 412 0 0 1 133.808 755.632a31.408 31.408 0 0 1 27.76-49.6l5.136 0.368c5.6 0.368 11.2 0.784 16.864 0.784 191.168 0.272 346.48-154.24 347.2-345.392a341.744 341.744 0 0 0-64.752-200.352 31.376 31.376 0 0 1 27.664-49.6c221.216 12.256 392.192 198.864 385.12 420.304-7.072 221.44-189.6 396.736-411.152 394.864z m-240.24-159.296a345.968 345.968 0 1 0 325.536-583.328 402.56 402.56 0 0 1 40.976 177.424c-0.72 208.992-158.672 383.92-366.512 405.904z" fill="#000000" p-id="5426"></path></svg>