<?xml version="1.0" standalone="no"?><!DOCTYPE svg PUBLIC "-//W3C//DTD SVG 1.1//EN" "http://www.w3.org/Graphics/SVG/1.1/DTD/svg11.dtd"><svg t="1622085339336" class="icon" viewBox="0 0 1088 1024" version="1.1" xmlns="http://www.w3.org/2000/svg" p-id="1899" xmlns:xlink="http://www.w3.org/1999/xlink" width="212.5" height="200"><defs><style type="text/css">@font-face { font-family: rbicon; src: url("chrome-extension://dipiagiiohfljcicegpgffpbnjmgjcnf/fonts/rbicon.woff2") format("woff2"); font-weight: normal; font-style: normal; }
</style></defs><path d="M180.032 137.984a96 96 0 0 1 95.552 86.784l0.448 9.216 0.064 152.32c26.368 26.176 43.392 65.856 45.76 113.92L322.112 512c0 32.64 5.76 60.224 18.56 83.2L340.8 486.4a342.208 342.208 0 1 1 684.352 0c0 93.44-24.896 179.456-77.888 235.008 54.912 14.528 84.48 35.2 84.48 69.504 0 38.784-59.904 69.12-142.016 87.936l-26.624 5.568a794.24 794.24 0 0 1-13.76 2.432l-28.352 4.352c-38.4 5.248-78.976 8.32-118.976 8.96l-122.688 1.088h-30.72a2005.12 2005.12 0 0 1-68.8-1.472c-103.488-4.032-179.328-16.384-227.008-42.304C142.272 797.248 64 673.024 64 512c0-48.32 14.272-88.96 38.08-117.12V233.92a32 32 0 0 0-26.24-31.488l-5.76-0.512v-64a96 96 0 0 1 95.552 86.784l0.448 9.216v120.768a118.592 118.592 0 0 1 45.952-1.536V233.984a32 32 0 0 0-26.24-31.488l-5.76-0.512v-64z m12.992 277.76C157.312 415.744 128 450.24 128 512c0 136.896 64.96 239.936 155.52 289.152 36.224 19.84 104.896 30.912 198.848 34.56 22.144 0.896 43.2 1.344 67.008 1.472l68.992-0.32 68.8-0.704c62.016 0 137.728-8.832 198.208-22.848a414.08 414.08 0 0 0 61.44-18.56l7.552-3.328-3.84-1.472a417.472 417.472 0 0 0-72.96-17.728l-5.824-0.832a238.912 238.912 0 0 1-84.224 14.336c-46.464 0-89.536-10.24-126.08-30.336h11.392c-290.816 0-414.656-68.608-414.656-243.392 0-61.76-29.44-96.256-65.088-96.256z m489.92-207.616A278.208 278.208 0 0 0 405.12 472.832l-0.32 13.44-0.128 166.4c38.336 18.56 91.392 30.016 162.24 35.264l21.952 1.344c-26.752-39.488-42.368-90.88-42.368-153.856 0-112.128 74.368-186.56 172.736-195.008 95.872-8.192 178.112 50.688 178.112 145.92 0 103.68-55.616 172.16-145.792 151.872-60.416-23.424-81.28-73.92-58.24-137.152a32 32 0 0 1 60.16 21.888c-11.456 31.36-5.76 45.12 16.576 54.144 37.888 8.384 63.296-22.912 63.296-90.752 0-53.76-47.04-87.424-108.672-82.112-66.368 5.696-114.176 53.568-114.176 131.2 0 125.824 75.136 186.304 176.96 186.304 117.76 0 173.696-105.152 173.696-235.392 0-153.6-124.544-278.208-278.208-278.208z" p-id="1900" fill="#f4ea2a"></path></svg>