<?xml version="1.0" standalone="no"?><!DOCTYPE svg PUBLIC "-//W3C//DTD SVG 1.1//EN" "http://www.w3.org/Graphics/SVG/1.1/DTD/svg11.dtd"><svg t="1622085314480" class="icon" viewBox="0 0 1024 1024" version="1.1" xmlns="http://www.w3.org/2000/svg" p-id="1391" xmlns:xlink="http://www.w3.org/1999/xlink" width="200" height="200"><defs><style type="text/css">@font-face { font-family: rbicon; src: url("chrome-extension://dipiagiiohfljcicegpgffpbnjmgjcnf/fonts/rbicon.woff2") format("woff2"); font-weight: normal; font-style: normal; }
</style></defs><path d="M772.608 51.52a19.2 19.2 0 0 1 5.12 5.312l110.08 166.912a19.2 19.2 0 0 1-16 29.76h-80.64v243.648a51.2 51.2 0 0 1-31.744 47.36l-6.528 2.176L296.768 665.6l0.064 103.488a110.336 110.336 0 1 1-64.064 0V253.568H152.96a19.2 19.2 0 0 1-15.872-30.08L251.52 56.512a19.2 19.2 0 0 1 31.872 0.32l110.08 166.912a19.2 19.2 0 0 1-16.064 29.76h-80.64v345.92l430.4-112.192V253.504h-79.808a19.2 19.2 0 0 1-15.808-30.08L745.92 56.512a19.2 19.2 0 0 1 26.688-4.992zM264.832 828.416a46.272 46.272 0 1 0 0 92.48 46.272 46.272 0 0 0 0-92.48z" p-id="1392" fill="#13227a"></path></svg>