<?xml version="1.0" standalone="no"?><!DOCTYPE svg PUBLIC "-//W3C//DTD SVG 1.1//EN" "http://www.w3.org/Graphics/SVG/1.1/DTD/svg11.dtd"><svg t="1622085306134" class="icon" viewBox="0 0 1024 1024" version="1.1" xmlns="http://www.w3.org/2000/svg" p-id="1225" xmlns:xlink="http://www.w3.org/1999/xlink" width="200" height="200"><defs><style type="text/css">@font-face { font-family: rbicon; src: url("chrome-extension://dipiagiiohfljcicegpgffpbnjmgjcnf/fonts/rbicon.woff2") format("woff2"); font-weight: normal; font-style: normal; }
</style></defs><path d="M612.224 32c149.376 0 270.72 96.96 277.76 271.872l0.32 16.128v64h-64V320c0-146.816-93.184-224-214.08-224-123.392 0-188.096 65.024-192.832 139.904l-0.128 1.024h77.632a19.2 19.2 0 0 1 19.2 19.2v91.712a320.192 320.192 0 1 1-258.048 0V256.128a19.2 19.2 0 0 1 19.2-19.2h78.08v-2.88C361.152 125.76 452.736 32 612.288 32zM452.096 300.928H321.984v88.576l-38.144 16.896a256.128 256.128 0 1 0 218.304 5.568l-11.84-5.568-38.144-16.832-0.064-88.64zM236.352 637.312c0 79.808 61.952 145.088 140.416 150.4l10.304 0.384v64a214.784 214.784 0 0 1-214.4-203.008l-0.32-11.776h64z m772.48-228.48l-75.008 74.88 61.888 123.776-102.592-68.352-35.968 145.344-33.536-145.472-102.72 68.48 61.824-123.776-74.88-74.88h300.928z" p-id="1226" fill="#d81e06"></path></svg>