<?xml version="1.0" standalone="no"?><!DOCTYPE svg PUBLIC "-//W3C//DTD SVG 1.1//EN" "http://www.w3.org/Graphics/SVG/1.1/DTD/svg11.dtd"><svg t="1622085324152" class="icon" viewBox="0 0 1024 1024" version="1.1" xmlns="http://www.w3.org/2000/svg" p-id="1595" xmlns:xlink="http://www.w3.org/1999/xlink" width="200" height="200"><defs><style type="text/css">@font-face { font-family: rbicon; src: url("chrome-extension://dipiagiiohfljcicegpgffpbnjmgjcnf/fonts/rbicon.woff2") format("woff2"); font-weight: normal; font-style: normal; }
</style></defs><path d="M436.8 158.144a400.32 400.32 0 1 1 0 800.64 400.32 400.32 0 0 1 0-800.64z m0 64c-108.16 0-204.288 51.008-265.792 130.24l43.52 0.064 76.608 105.6-51.84 37.568-57.408-79.168H131.84a333.824 333.824 0 0 0-22.784 66.24c20.864 12.8 53.248 35.328 82.752 39.488 17.024 2.368 30.528 2.56 40.704 2.56L243.2 524.8c10.624 0.192 15.04 1.536 13.952 9.536-2.24 15.872-17.664 26.816-65.28 20.096-30.72-4.288-66.304-28.608-87.168-49.664a336.32 336.32 0 1 0 332.096-282.624z m95.552 482.304c-93.824 82.56-178.944 119.04-255.488 109.504C200.256 804.48 166.4 768 175.36 704.512l-0.832 7.36 0.64 0.64c7.232 5.184 29.44 10.112 66.56 14.848l11.52 1.408c64.192 7.424 157.184-0.64 279.04-24.32z m377.6-88.832a30.08 30.08 0 0 1 22.208 37.248 30.272 30.272 0 0 1-14.912 19.2 32.64 32.64 0 0 1-23.04 2.304 28.416 28.416 0 0 1-18.432-13.952 28.992 28.992 0 0 1-3.456-23.552 27.392 27.392 0 0 1 14.144-18.304 28.544 28.544 0 0 1 23.424-2.944z m51.392-172.736c20.608 5.568 35.84 15.68 45.632 30.72 9.92 15.232 12.288 33.088 7.04 52.416a67.584 67.584 0 0 1-23.232 36.8l-2.56 1.728-8.32 4.608-12.48 6.272a931.2 931.2 0 0 1-7.68 3.712 41.6 41.6 0 0 0-12.8 9.344 27.328 27.328 0 0 0-5.376 8.192l-1.792 5.248-1.28 4.8-11.712 6.784-30.08-8.064-6.784-11.776 1.28-4.8c3.2-11.904 8-21.76 14.528-29.12 6.08-6.848 17.472-14.464 34.432-23.36l8.96-4.608 5.632-3.648a24.192 24.192 0 0 0 9.6-13.312c1.984-7.424 1.472-13.312-1.024-17.92-2.752-4.8-7.68-8.256-15.552-10.304-9.856-2.688-17.024-1.664-22.272 2.688a34.88 34.88 0 0 0-10.112 15.872l-1.92 5.952-11.712 6.784-29.824-7.936-6.784-11.776c6.144-22.976 17.92-39.488 35.328-49.28 17.28-10.24 37.824-12.16 60.8-6.016zM418.688 550.464c47.68 6.72 134.336-40.32 132.096-24.448-2.24 15.872-84.48 67.008-132.096 60.352-47.616-6.72-48.768-20.032-46.528-35.84 2.24-15.936-1.088-6.784 46.528 0zM493.44 383.808l90.688 25.472-17.28 61.632-68.16-19.136L357.12 516.736l-26.688-58.112L493.44 383.808z m404.48-33.024a30.08 30.08 0 0 1 22.272 37.312 30.272 30.272 0 0 1-14.848 19.2 32.64 32.64 0 0 1-23.104 2.24 28.416 28.416 0 0 1-18.432-13.952 28.992 28.992 0 0 1-3.456-23.552 27.392 27.392 0 0 1 14.208-18.304 28.544 28.544 0 0 1 23.424-2.944z m51.456-172.672c20.608 5.504 35.84 15.616 45.696 30.72 9.92 15.168 12.224 33.024 7.04 52.352a67.584 67.584 0 0 1-23.232 36.8l-2.624 1.728-14.08 7.552-14.4 7.04a41.6 41.6 0 0 0-12.736 9.344 27.328 27.328 0 0 0-5.376 8.256l-1.792 5.184-1.28 4.8-11.776 6.784-30.08-8.064-6.784-11.776 1.28-4.8c3.2-11.904 8-21.696 14.592-29.12 6.016-6.848 17.472-14.464 34.368-23.36l8.96-4.544 5.696-3.712a24.192 24.192 0 0 0 9.6-13.312c1.92-7.424 1.472-13.312-1.088-17.92-2.688-4.8-7.68-8.192-15.488-10.304-9.92-2.688-17.024-1.664-22.272 2.688a34.88 34.88 0 0 0-10.176 15.872l-1.856 6.016-11.776 6.784-29.76-8-6.784-11.776c6.144-22.912 17.92-39.488 35.328-49.28 17.28-10.24 37.76-12.16 60.8-5.952z m-166.784 8.064a30.08 30.08 0 0 1 22.272 37.248 30.272 30.272 0 0 1-14.912 19.2 32.64 32.64 0 0 1-23.04 2.304 28.416 28.416 0 0 1-18.432-13.952 28.992 28.992 0 0 1-3.52-23.552 27.392 27.392 0 0 1 14.208-18.304 28.544 28.544 0 0 1 23.424-2.944zM833.984 13.44c20.608 5.568 35.84 15.68 45.696 30.72 9.92 15.232 12.224 33.088 7.04 52.416a67.584 67.584 0 0 1-23.232 36.8l-2.56 1.728-8.384 4.608-20.16 9.984a41.6 41.6 0 0 0-12.736 9.344 27.328 27.328 0 0 0-5.376 8.192l-1.792 5.248-1.28 4.8-11.776 6.784-30.08-8.064-6.784-11.776 1.28-4.8c3.2-11.904 8-21.76 14.592-29.12 6.08-6.848 17.472-14.464 34.368-23.36l8.96-4.608 5.696-3.648a24.192 24.192 0 0 0 9.6-13.312c1.92-7.424 1.472-13.312-1.024-17.92-2.752-4.8-7.744-8.256-15.552-10.304-9.856-2.688-17.024-1.664-22.272 2.688a34.88 34.88 0 0 0-10.176 15.872l-1.856 5.952-11.712 6.784-29.824-7.936-6.784-11.776c6.144-22.976 17.92-39.488 35.328-49.28 17.28-10.24 37.76-12.16 60.8-6.016z" p-id="1596" fill="#2c2c2c"></path></svg>