<?xml version="1.0" standalone="no"?><!DOCTYPE svg PUBLIC "-//W3C//DTD SVG 1.1//EN" "http://www.w3.org/Graphics/SVG/1.1/DTD/svg11.dtd"><svg t="1622085451867" class="icon" viewBox="0 0 1281 1024" version="1.1" xmlns="http://www.w3.org/2000/svg" p-id="2153" xmlns:xlink="http://www.w3.org/1999/xlink" width="250.1953125" height="200"><defs><style type="text/css">@font-face { font-family: rbicon; src: url("chrome-extension://dipiagiiohfljcicegpgffpbnjmgjcnf/fonts/rbicon.woff2") format("woff2"); font-weight: normal; font-style: normal; }
</style></defs><path d="M473.943255 935.983165c-0.465359 15.060242 5.009949 29.413011 16.42802 43.060405 11.418072 13.646346 31.183263 28.340798 59.295575 44.080213-15.06129 0.473744-29.077617-0.078608-42.048983-1.656008-19.457048-2.366624-27.380733-5.19756-37.274858-11.772332-9.894125-6.57582-24.820209-25.685945-19.657236-47.08723 3.441982-14.267873 11.193777-23.14219 23.257482-26.625048z m15.546563-132.150502c80.440074 15.6367 112.168352 80.710485 134.539136 135.219357 10.359484 25.240499 19.579677 33.723873 25.598952 41.523882-12.746023-6.084258-53.791967-9.394178-80.556414-41.523882-19.571292-23.494354-73.489032-37.928876-98.281989-23.664147-15.954276 4.68294-28.277912 16.549601-33.650506 39.303992-5.812798 24.617924-0.515668 42.008106 11.95051 54.528786l0.379414 0.377318-2.383394-0.473744C367.885363 993.032647 310.574903 946.649744 323.839738 878.407533c13.400041-68.933961 85.208958-90.209474 165.65008-74.572774z m30.917044 27.264393c-25.034023-10.43914-51.203144-15.245756-78.507366-14.421944l-25.42811 11.083725c38.408909 0 68.791419 2.620266 91.146481 7.857654 22.356111 5.238436 46.087337 23.414698 71.196823 54.532979-13.90418-28.930882-33.372757-48.615369-58.407828-59.052414z m-13.86016 15.741511l-11.587865 0.471648c13.053118 4.033114 23.515316 8.558837 31.386596 13.579267 7.871279 5.02043 15.995153 11.565855 24.372667 19.638371-4.753163-8.253838-10.362628-14.981634-16.827349-20.182338-6.466817-5.200704-15.580102-9.703369-27.344049-13.506948z m599.404741-68.071369c-0.465359 15.060242 5.009949 29.413011 16.428021 43.060405 11.418072 13.646346 31.183263 28.340798 59.295574 44.080213-15.06129 0.473744-29.077617-0.078608-42.048983-1.656008-19.457048-2.366624-27.380733-5.19756-37.274857-11.772332-9.894125-6.57582-24.820209-25.685945-19.657237-47.08723 3.441982-14.267873 11.193777-23.14219 23.257482-26.625048z m15.546563-132.150502c80.440074 15.6367 112.168352 80.710485 134.539136 135.219357 10.359484 25.240499 19.579677 33.723873 25.598952 41.523881-12.746023-6.084258-53.791967-9.394178-80.556413-41.523881-19.571292-23.494354-73.489032-37.928876-98.283038-23.664147-15.953228 4.68294-28.276864 16.549601-33.649458 39.303992-5.812798 24.617924-0.515668 42.008106 11.95051 54.528786l0.379415 0.377318-2.383395-0.473744C999.893552 835.81668 942.583091 789.433777 955.847926 721.191566c13.400041-68.933961 85.208958-90.209474 165.65008-74.572774zM227.518755 705.008802c3.048942 3.687238 7.862895 6.521318 14.70703 8.887943l0.961114 0.324913c0.811234 0.269363 1.650768 0.53139 2.516503 0.789224l1.053347 0.304999 1.07955 0.301855 0.549208 0.148831 1.120425 0.29347 1.146629 0.290325 1.173879 0.285085 1.202178 0.281941 1.228381 0.277748 1.257728 0.274604 1.28393 0.27146 1.312229 0.268315 1.340529 0.266219 1.963103 0.374174-56.509707 99.308086-107.124864 28.862755 76.52854-44.897736 53.210268-96.914211z m36.581012 14.127427l0.251545 0.045069 1.463157 0.252594 2.253429 0.374174 2.322604 0.366837 1.586833 0.241064 1.617228 0.241065 2.484012 0.353212 2.554236 0.346923 1.740904 0.229535 2.669528 0.33749 2.738702 0.33225 2.808925 0.327009 1.910698 0.213814 2.924217 0.316528 2.995488 0.311288 3.063615 0.304999 3.133839 0.299758 2.127656 0.195996 2.159099 0.1939 3.297343 0.286133 3.366518 0.279844 3.436741 0.274604 2.329941 0.180275 3.55308 0.264122 3.624353 0.259931 4.939725 0.336442 1.691644 0.112147 3.757462-0.977883 4.175656-1.100512c1.37826-0.365789 2.746039-0.73053 4.099144-1.094223l2.725077-0.737867 68.56922 67.369138c-27.820938 3.402154-51.578366 12.776418-69.452774 27.907931-12.961932-11.461044-25.734158-24.624213-38.315627-39.484266-18.549388-21.908569-33.416778-41.628692-44.603218-59.159321z m35.277166 17.201523h-9.904605l56.440532 66.512836-46.535927-66.512836z m360.965765 12.776418l0.422387 0.161408L690.543885 802.849539c-17.859734-7.278051-30.771357-13.735435-38.73487-19.374247-11.945269-8.457171-16.934256-16.261372-11.945269-28.314596 3.280573-7.927877 10.107939-9.944434 20.478952-6.047574zM228.612979 564.405322l100.317412 51.969311a648.953973 648.953973 0 0 0-7.602964 2.71774l-45.619881-23.631657-11.478862 20.904484-17.064221-7.993908L153.547595 772.888368 46.422731 801.751124l76.52854-44.897736L228.612979 564.405322z m501.022133 155.069446c12.568893 3.490194 15.648229 12.225114 14.957527 26.84515-0.459071 9.74739-3.319353 23.896827-8.580848 42.451456l-23.883201-56.451014c3.291054-10.889826 9.126911-15.172389 17.506522-12.845592z m-19.32918-82.910461c32.966092 3.546792 1.368827 32.741797 42.787898 63.087623 22.232434 16.288622 17.245544 32.463001 2.060577 43.951296 0.147783-18.326141-6.372487-29.689711-22.715611-34.228012-14.528852-4.033114-25.549691 4.054076-30.342681 19.914022l-1.097368 3.626449 11.246182 26.579979c-2.802637 0.295566-5.565445 0.449638-8.248597 0.449638-7.61659 0-15.732078-1.029241-23.666244-2.976622a59.70224 59.70224 0 0 1-1.986162 2.359287l-1.882399-3.38748h-0.002096l-8.375419-15.069674-3.532118-1.369875-0.505188-0.191804-0.265171-0.098522a48.303034 48.303034 0 0 0-0.264123-0.096426l-0.097473-0.035635-0.121581-0.044021 0.020962 0.007337-0.037731-0.012577-0.23268-0.082801 0.173986 0.061839-0.175034-0.061839-0.146735-0.051357-0.21067-0.072319a46.098866 46.098866 0 0 0-0.356356-0.119484l-0.537678-0.175034a46.271803 46.271803 0 0 0-1.055443-0.320721l-0.08909-0.026202 0.03354 0.009433-0.209621-0.059743-0.141495-0.039828 0.041924 0.01153 0.25469 0.073367-0.42029-0.119484 0.070223 0.019914-0.156168-0.044021 0.085945 0.024107-0.103763-0.028299-0.026203-0.007337-0.028298-0.007336h0.002096l-0.044021-0.01153-0.062886-0.016769a41.146563 41.146563 0 0 0-0.262027-0.070223l0.143591 0.038779-0.21591-0.057645-0.023058-0.006289a40.090072 40.090072 0 0 0-0.689654-0.172938l-0.343779-0.080704 0.343779 0.080704-0.052406-0.012577-0.148831-0.034587-0.201236-0.047165 0.058694 0.013625-0.165601-0.037732-0.186563-0.041924-0.241065-0.052405-0.146734-0.031443-0.131014-0.027251-0.225343-0.046117 0.066031 0.013626a35.475259 35.475259 0 0 0-2.090972-0.359501l-0.015722-0.003144-0.030395-0.004193-0.159312-0.020962-0.146735-0.019914-0.024107-0.003144-0.075463-0.009433-0.173986-0.02201h-0.002096l-0.046117-0.005241-0.264123-0.031443 0.241065 0.028299-0.161409-0.018866-0.128917-0.014674-0.499946-0.050309a31.304843 31.304843 0 0 0-0.545016-0.047165l-0.209621-0.015721-0.080704-0.005241-0.014674-0.001048 0.010481 0.001048-0.02725-0.002096-0.064983-0.004192-0.219054-0.013626-0.058694-0.003144-0.265171-0.013625 0.068127 0.003144-0.066031-0.003144-0.028299-0.001049-0.041924-0.002096-0.184467-0.007336-0.062886-0.002097-0.080704-0.002096-0.036684-0.002096-0.041924-0.001048h0.001048l-0.025155-0.001048-0.029347-0.001048h-0.041924 0.041924l0.017818 0.001048h0.011529l0.023059 0.001048-0.034588-0.001048-0.039828-0.001048-0.0828-0.002097-0.534535-0.007336-0.469551 0.001048-0.092234 0.001048-0.279844 0.00524-0.223247 0.006289h-0.007337l-0.122628 0.005241-0.071271 0.002096-0.029347 0.001048-0.121581 0.00524-0.048213 0.002097-0.047164 0.003144h-0.012578l-0.020962 0.001048-0.052405 0.003144-0.085945 0.005241-0.180274 0.010481-0.184467 0.012577-0.073367 0.004193 0.209621-0.013626-0.387799 0.028299-0.144639 0.011529-0.303951 0.028299-0.09433 0.009433-0.035635 0.003144-0.009433 0.001049 0.006289-0.001049h0.003144l0.018866-0.001048-0.020962 0.001048-0.010481 0.001049-0.073368 0.008384 0.018866-0.002096-0.314432 0.035636 0.188659-0.02201-0.029347 0.004192c-0.080704 0.008385-0.16036 0.017818-0.241064 0.028299l0.073367-0.009433-0.156168 0.018866-0.049261 0.006288-0.014673 0.002097-0.013625 0.002096-0.066031 0.008385-0.226391 0.031443 0.088041-0.012577-0.172938 0.024106-0.007337 0.001048-0.041924 0.006289 0.034588-0.005241-0.036684 0.006289-0.202285 0.029347 0.063935-0.009433-0.136254 0.020962-0.086993 0.014674-0.374174 0.063934-0.190755 0.035636-0.203333 0.03878-0.120532 0.024106-0.07756 0.015722-0.209621 0.045068-0.245257 0.054502-0.05555 0.012577 0.053454-0.012577-0.148831 0.034587-0.047165 0.011529-0.028299 0.006289 0.020962-0.004192-0.054501 0.012577-0.440205 0.111099-0.450686 0.123677-0.213814 0.062886-0.041924 0.011529-0.156168 0.046117-0.014673 0.006289-0.048213 0.013625-0.353212 0.114244a21.17175 21.17175 0 0 0-0.397232 0.135205c-5.698555 2.005028-10.238952 6.357814-13.037397 13.120197-5.500463 13.28999-2.783771 24.036225 7.031747 33.803529-5.113711 1.430665-10.250481 2.239803-15.212217 2.239804-37.814633 0-88.130031-23.522653-68.46965-60.790174 19.661429-37.267521 30.655017-60.790174 68.46965-60.790174 12.451505 0 19.61636 5.915513 24.679762 14.209179 16.784377-27.192074 36.519173-46.177474 63.628446-43.260594zM657.142829 758.567042l-2.387586 3.530022 19.612167 21.038641-17.224581-24.567615z m74.775058-13.540487l-3.764798 1.995594 7.43946 27.783206-3.674662-29.7788zM505.187308 447.541453c258.861331 9.097564 235.231771 179.184278 247.63087 224.252856 1.187505 4.314006 0.913949 8.837634-0.63096 13.478649h-0.010481c-4.519435-4.343353-7.592483-8.730727-9.611136-13.307808l-0.257834-0.594276-0.243161-0.581699-0.230583-0.572266-0.216959-0.565978-0.20438-0.564929-0.098522-0.281941-0.188659-0.565977-0.179227-0.57017-0.169793-0.579603-0.081752-0.29347-0.158264-0.59742-0.150928-0.613143-0.144638-0.633056-0.139398-0.655066-0.136254-0.680222-0.129965-0.708519-0.191804-1.124619-0.188659-1.205322-0.185515-1.299652-0.188659-1.401318-0.258882-2.048-0.202285-1.664393-0.204381-1.601507-0.13835-1.010375-0.141494-0.967402-0.145687-0.926526-0.150927-0.888794-0.157216-0.853159a50.449556 50.449556 0 0 0-0.081753-0.414002l-0.169793-0.803898-0.178178-0.77455c-0.859447-3.54784-2.059529-6.20479-4.119058-9.065073-4.529916-6.297024-11.660184-9.634194-21.704189-10.71584-18.891071-2.033327-35.656581 4.615861-50.576376 18.687738-5.332766 5.028815-10.398264 10.934895-15.378866 17.856589-6.366199-4.941822-14.155726-7.552655-23.47444-7.552655-15.94694 0-28.707636 3.764798-39.44339 11.542796-8.56303 6.20479-15.503591 14.550862-22.912655 26.733003l-0.890891 1.480975-0.897179 1.517658-1.452675 2.490301-0.632009 1.097367-1.095271 1.94319-1.066972 1.945285-1.918035 3.574043-7.431075 14.055108c-9.836479 18.64791-6.413363 36.402833 6.96362 50.212684-8.756929-0.131013-17.239255-0.832197-25.305483-2.169581-42.16113-6.982485-100.148667-27.221421-150.734477-54.865228 45.594727-13.868545 71.760704-26.639722 80.151845-39.985261 8.309388-13.214526 8.380659-29.713818 0.840581-44.150436-7.504442-14.368491-21.685322-25.20172-39.506276-29.501052-15.778194-3.806723-40.478919-0.102714-74.796021 10.959001a41.235652 41.235652 0 0 0-2.299545-1.759771l-0.939104-0.656115-32.822501-17.004479c0.948536-8.897376-3.608631-16.988757-12.355079-23.215557l-0.939103-0.656115-20.165568-10.446477C298.500716 493.577433 393.012667 443.598477 505.187308 447.541453zM231.693363 709.37207l-32.568859 59.724249 35.126239-58.58915-2.55738-1.135099zM182.497343 523.529171l104.59159 54.185007c4.13478 2.879148 6.73094 5.9501 7.789528 9.214952l-70.527083-36.536991-12.237691 22.286936-11.06486-5.183935L107.430911 732.012217 0.306047 760.874972l76.528541-44.897736L182.496295 523.529171z m412.838649 200.861216l-1.322711 4.050931 24.651464 14.818129-3.478665-5.017285-19.851136-13.851775z m-5.322285-32.13704l-4.605379 7.235079 41.277576 40.692733-4.380037-11.429601-32.29216-36.498211z m304.47702-65.173355l69.432859 49.518837c-8.886895 11.915922-15.164004 26.13139-18.362824 42.591902-1.333191 6.854616-2.024942 13.54992-2.106694 20.067046-27.425801-11.829977-55.129351-29.796618-83.106457-53.90097-12.539546-10.802833-23.755333-21.079517-33.650506-30.827955l2.118224-0.645634 3.096106-0.955873 2.024942-0.633056 3.95765-1.253536 1.932708-0.620479 2.840368-0.923381 1.856197-0.611047 1.824753-0.607901 2.67896-0.901372 1.748242-0.59742 1.716798-0.594277 2.517552-0.882505 1.640287-0.583796 1.609891-0.579603 1.578448-0.576458 1.548054-0.572266 2.263909-0.851063 1.471542-0.562833 1.440098-0.558641 2.10355-0.831148 1.364634-0.549208 1.333192-0.545015 1.323758-0.550256 1.316422-0.555496 1.286027-0.552353 1.255631-0.548159 0.618383-0.272508 1.211611-0.545015 1.183312-0.541871c0.389896-0.179226 0.774551-0.359501 1.153965-0.538727l1.125667-0.536631c0.184467-0.090137 0.368933-0.178178 0.551304-0.268315l1.081646-0.534534 1.053346-0.533486c0.172938-0.088041 0.345875-0.17713 0.515669-0.266219l1.010374-0.53139 0.982076-0.530342a81.18947 81.18947 0 0 0 2.775386-1.592074l0.869928-0.530342a54.554989 54.554989 0 0 0 3.813012-2.58463zM230.365412 582.69478l-80.501911 147.622649 80.501911-134.271869v-13.35078z m931.24782 113.216458l-11.587865 0.471648c13.053118 4.034162 23.515316 8.559885 31.386596 13.580316 7.871279 5.02043 15.995153 11.565855 24.372668 19.63837-4.753163-8.253838-10.362628-14.981634-16.82735-20.182338-6.466817-5.200704-15.580102-9.703369-27.344049-13.506947z m-747.400516-84.666038c31.361441 7.567329 45.019316 37.57776 32.251284 57.883774-8.510624 13.537343-46.616631 29.10906-114.313826 46.714105-59.280901-3.933544-91.61184-9.969589-96.991771-18.107087-5.382027-8.138547 11.256663-25.835824 49.915022-53.093929 65.185932-27.308414 108.232712-38.4414 129.139291-33.396863z m262.251955 51.34359l-5.900839 6.223656 30.425482 44.420848 0.209622-8.655263-24.734265-41.989241z m178.239935-7.453085l-9.328147 2.229323 73.3402 53.271058-64.012053-55.500381zM697.79783 671.381355l-3.794145 2.52384 10.380446 26.642866 1.146628-4.461789-7.732929-24.703869zM181.104409 543.914841L100.602497 691.536442l80.501912-134.271869v-13.35078z m887.562744 113.450187l-25.428111 11.082677c35.572733 0 61.739758 1.462108 78.500029 4.386326 16.76027 2.923169 37.66685 8.370178 62.718689 16.339979-17.657449-11.709445-34.348545-19.938129-50.072237-24.686051-15.723693-4.747922-37.629118-7.122931-65.71837-7.122931z m-669.5304-35.394555L303.839771 650.874104 267.791198 675.737286l43.647344-20.679141 94.912328-28.372241-7.215165-4.716479z m425.374002 45.052856a631.722055 631.722055 0 0 0 9.265261 8.715005l-5.083316-1.370924-0.559689-0.981027-3.622256-6.363054z m-46.384999-7.110355l0.478985 0.031444 2.780626 0.178178 2.816262 0.170841 2.853994 0.167697 2.88963 0.16036 4.404143 0.231632 4.485896 0.220102 3.035316 0.140447 1.69374 0.076511 4.027873-1.142436 0.817523-0.233727 5.481597 9.635242-35.765585-9.636291zM279.971243 609.4739l28.143754 14.578112a929.619062 929.619062 0 0 0-13.292086 5.245773l-3.87485 1.57216-3.930399 1.610939c-1.318518 0.545015-2.646469 1.095271-3.982804 1.651816l-3.068856 1.283931-1.204274 0.848966 0.864688-1.441147v-13.35078l-12.429495 22.793171 10.442285-7.20678-1.280786 0.909757-1.744049 1.247246-1.713655 1.233622-1.683258 1.221044-1.652864 1.207418-1.622469 1.194842-1.592074 1.183312-1.561678 1.169687-1.530236 1.156061-1.500888 1.144532-1.470494 1.131955-1.440098 1.11833-1.409703 1.105752-1.380356 1.094223-0.143591 0.114244 24.058236-43.818186z m459.828405-49.725315c23.264819 0.267267 54.52669 4.121155 93.786661 11.560615 43.480696 18.624852 63.435595 32.475578 59.863648 41.555324-3.570899 9.078698-33.939783 21.705236-91.107701 37.878567-15.73627-0.709568-29.984229-1.628757-42.741781-2.759664l-0.080704-0.69175-0.883554-7.661659-0.438109-3.701912-0.350067-2.86133-0.245257-1.949478-0.25469-1.972536-0.266219-1.998739-0.278796-2.02599-0.291374-2.052193-0.151975-1.048106-0.311288-2.075251-0.327009-2.112982-0.523005-3.211399-0.285085-1.67697c-0.190755-1.110993-0.385703-2.207312-0.584844-3.296295l-0.30395-1.627709-0.420291-2.190543-0.311288-1.561678c-2.829887-14.016328-6.521318-27.031713-11.435889-39.50418l-0.551304-1.383501-1.013519-2.467242-0.49261-1.163399z m-488.313842 62.22084l7.688908 3.602342-5.34115 9.729572a140.543738 140.543738 0 0 1-7.661658-3.993286l5.3139-9.338628zM836.426678 481.604913l82.289981 149.878174-16.879754-12.038551a17.81781 17.81781 0 0 0 1.366731-2.743942c2.35824-5.992025 0.977883-12.124495-2.957757-17.633343-2.862379-4.006911-7.215165-7.921589-13.106571-12.0113-0.485273-0.336442-0.982076-0.676029-1.491455-1.016663l-1.033433-0.684414-1.065925-0.690702-1.097367-0.695943-0.559689-0.349019-1.14558-0.704328-1.175976-0.710616-1.208466-0.714808-1.240958-0.721098-1.272402-0.727386-1.303844-0.732626-1.336336-0.738915-0.680221-0.37103-1.3835-0.7473-1.41704-0.75254-1.448483-0.759877-1.479927-0.765118-0.75254-0.383607-1.528139-0.774551a332.784278 332.784278 0 0 0-0.776647-0.388847l-1.5774-0.782936-1.608844-0.788176-1.641335-0.795512-1.672777-0.800754-1.706318-0.807042-2.620266-1.222092-1.785973-0.822763-1.818465-0.828004-1.852004-0.835341-2.838272-1.264017-1.932709-0.851062-1.965199-0.856303-2.073155-0.895083-20.77347-36.505548-52.847623 25.050793-0.956921-0.083849c-1.061732-0.092233-2.111934-0.179226-3.152704-0.262027l-2.321556-0.176081c-1.152917-0.083849-2.292209-0.161408-3.416827-0.233728l-2.233515-0.134158-1.103656-0.061838-2.180061-0.109003c-0.360549-0.01677-0.720049-0.033539-1.077454-0.048213l-2.126608-0.084897c-0.351116-0.012577-0.702231-0.025155-1.050202-0.035635l-2.073155-0.059742-1.024-0.024107-2.020749-0.033539c-1.823705-0.024106-3.60339-0.026203-5.340103-0.008385a177.784008 177.784008 0 0 0-5.865203-10.778727l-0.882506-1.47783L836.426678 481.604913z m-270.233286 49.456999l-11.470477 36.854567-62.20407-8.026399-14.896737 48.731709 23.327706-27.720319 69.311279 6.794874 11.218932-38.268463 65.935328-1.362538-81.223009-17.003431z m191.087623 40.17392l4.482752 8.694043 64.933338 10.172921 40.823747 11.866662-34.346449-15.366289-75.893388-15.366289z m-551.911893 9.857441l1.690596 0.791321-4.30667 7.845076a90.108856 90.108856 0 0 1-1.129859-2.054288l3.745933-6.582109z m629.901494-83.965904v11.049139l34.346448 56.465686-34.346448-67.514825z m-346.633957-4.845396l-5.223762 28.097638-47.2979-0.243161-6.705785 37.128123 14.934469-22.468258 52.504892-1.308037 4.907235-29.112204 49.233752-6.988774-62.352901-5.105327z m309.279443 54.268856l4.822338 8.78418-1.247247-0.192851-2.8781-0.433916-2.841416-0.418195c-0.9412-0.136254-1.876111-0.269363-2.805781-0.400377l-2.770146-0.384655-2.734509-0.367885c-0.452782-0.06079-0.903468-0.119484-1.353106-0.178178l-1.346817-0.172938 13.154784-6.235185zM324.388946 447.541453c20.409777 0 39.7421 3.536311 57.01175 9.852201-57.487591 20.386719-100.899112 54.652463-118.336459 96.069437l-65.51923-33.941879C214.107185 477.854788 264.632205 447.541453 324.388946 447.541453z m-58.693961-16.769703c15.306547 0 29.857408 2.484012 43.008 6.956283-56.488745 4.818145-103.490031 35.3694-120.528049 76.939398l-9.940242-5.151443-14.500553 26.409138C160.857089 528.510821 159.31218 520.656311 159.31218 512.524053c0-45.15033 47.629101-81.752303 106.382805-81.752303z m-45.123079 77.13225l-3.870657 5.194416 36.919549 14.979537 9.106997-12.067898-42.154841-8.106055z m184.429003-24.006878l-2.861331 17.916331-28.809302 0.335394-3.663132 23.672533 8.840778-14.438715 31.962006-1.375115 2.657998-18.557773 29.90667-4.953351-38.033687-2.599304zM753.626268 465.883316l19.820741 36.102027-33.180954 16.987709-5.191271-9.123766-19.418268 9.097564a170.806764 170.806764 0 0 0-21.342592-22.336197l7.519116-3.89686v0.001048l51.793228-26.831525z m-501.673007-91.527992c10.681253 10.504123 20.006256 23.543615 27.044291 38.636348a140.103533 140.103533 0 0 1 3.530022 8.24755A149.095238 149.095238 0 0 0 265.694985 420.290686c-63.341265 0-115.727722 39.733715-116.846052 90.573167-6.936368-8.448786-13.059406-18.097654-18.036863-28.772619-15.192303-32.580389-16.20687-67.177335-5.331718-93.497383C140.52592 405.290186 160.852897 415.574207 183.418628 415.574207c28.235988 0 52.962915-16.098915 68.22649-40.713695l0.308143-0.505188zM751.922047 478.03087l-1.746145 5.626235 12.830919 22.015476v-4.547734l-11.084774-23.093977z m-574.875906 1.142436l-3.622256 5.25311 17.401712 12.146505 2.72298-6.186972-16.502436-11.212643zM675.018285 443.873081l21.76917 39.650915-11.300683 5.854723-0.421339-0.324913a192.313908 192.313908 0 0 0-16.116733-11.041802l-1.41704-0.862592-1.819513-1.082693-1.188552-0.693847c-8.026399-4.651496-16.594669-8.90052-25.720533-12.738686l36.215223-18.761105z m-1.060684 12.128688l-2.167484 5.214329 15.128368 22.460921-12.960884-27.67525z m-527.305499-36.744516l11.609875 33.558272 5.041392-5.869396-8.188855-22.74391-8.462412-4.944966z m100.975624-146.588168c6.161818 12.930489 9.682407 27.90269 9.682407 43.859062 0 48.913032-33.082432 88.564995-73.891505 88.564995s-73.891505-39.651963-73.891504-88.564995c0-12.546882 2.176917-24.484815 6.103124-35.300225 9.287271 14.971153 22.872827 26.296991 39.878354 31.495599 33.897859 10.364725 70.143476-7.053756 91.977629-39.838526l0.141495-0.21591zM129.501937 309.809785c-2.936794 11.50192-2.737654 23.999541 0.600565 37.491816 3.337171 13.492274 7.787431 24.460708 13.349731 32.905302l10.597405 6.512933c-6.335803-8.045265-11.414927-19.685535-15.237372-34.922907-3.822444-15.236323-4.550878-27.240287-2.18635-36.010841l-7.123979-5.976303z m31.387643-170.023828c-1.274497 29.281998 9.878403 55.631394 32.828791 68.881556 18.953957 10.942231 41.775427 10.460102 63.17776 0.940151-0.233728 9.489556-1.781781 19.29564-4.773077 29.082858-14.301412 46.775943-56.184794 75.434317-93.549789 64.011005-37.364995-11.42436-56.063214-58.603824-41.762849-105.379767 7.973994-26.078985 24.52045-46.526493 44.079164-57.535803zM376.270215 0c23.194596 0 44.832753 4.985842 63.100201 13.603374 57.661576 23.108651 99.210612 56.8734 124.646059 101.294247 25.746735 44.964815 35.285552 97.12488 28.617498 156.478101-14.394694-66.466719-34.018391-102.379038-58.870043-107.734862-23.893683-5.149347-62.513261-2.529081-115.857686 7.858702C404.952696 175.140684 390.922743 177.12999 376.270215 177.12999c-65.410227 0-118.436029-39.651963-118.436029-88.564995S310.859988 0 376.270215 0zM155.541093 189.421134c-7.994956 8.776843-13.685126 19.905638-17.072606 33.385335-3.38748 13.479697-4.607476 25.254125-3.659988 35.321187l6.29912 10.726321c-1.818465-10.078592-0.838485-22.741814 2.940987-37.989666 3.778424-15.246805 8.769507-26.187988 14.975345-32.821453l-3.482858-8.621724zM264.111296 39.518854C253.456246 53.904115 247.353122 70.610931 247.353122 88.564995c0 31.03024 18.23286 58.337605 46.665891 76.375517-25.329589 35.847337-66.121892 51.357216-95.06011 34.650399-31.332094-18.090317-36.904876-67.093486-12.448361-109.453756 18.829232-32.61288 49.968475-51.779603 77.600754-50.618301z m-37.553654 37.402726c-10.701167 5.143058-20.144606 13.329818-28.335558 24.559231-8.190952 11.229412-13.732291 21.688467-16.625065 31.37821L183.418628 145.162743c2.089924-10.026186 7.742362-21.399189 16.958363-34.121105 9.214952-12.721916 17.941486-20.995668 26.180651-24.822305v-9.298801z m213.098907-38.501142c-35.026669-15.114743-77.160549-16.277093-126.401638-3.489146l-19.316602 24.667185c50.22002-21.860356 94.835816-27.325183 133.849482-16.395529 39.012618 10.930702 81.19471 36.872385 126.54418 77.826096-41.424311-39.956962-79.649801-67.492815-114.675422-82.608606zM411.41532 51.336254c-19.802923-3.04999-39.003185-3.04999-57.599738 0-18.596553 3.04999-39.178219 8.743304-61.747095 17.083087l-7.616589 8.84497c28.074579-11.284962 51.194759-18.368066 69.363684-21.250358 18.168925-2.882293 37.368139-4.440827 57.599738-4.677699z" p-id="2154"></path></svg>