<?xml version="1.0" standalone="no"?><!DOCTYPE svg PUBLIC "-//W3C//DTD SVG 1.1//EN" "http://www.w3.org/Graphics/SVG/1.1/DTD/svg11.dtd"><svg t="1622084139334" class="icon" viewBox="0 0 1024 1024" version="1.1" xmlns="http://www.w3.org/2000/svg" p-id="1061" xmlns:xlink="http://www.w3.org/1999/xlink" width="200" height="200"><defs><style type="text/css">@font-face { font-family: rbicon; src: url("chrome-extension://dipiagiiohfljcicegpgffpbnjmgjcnf/fonts/rbicon.woff2") format("woff2"); font-weight: normal; font-style: normal; }
</style></defs><path d="M429.632 62.08a338.944 338.944 0 0 1 251.52 566.08l34.816 34.752a64 64 0 0 1 55.68 11.264l6.016 5.312 190.528 190.464a64 64 0 0 1-84.48 95.808l-6.016-5.312-190.528-190.4a64 64 0 0 1-16.576-61.888l-36.608-36.736A338.944 338.944 0 1 1 429.632 62.08z m0 64A274.944 274.944 0 1 0 607.36 610.688a32 32 0 0 1 13.76-12.608A274.944 274.944 0 0 0 429.568 126.08zM278.848 401.024c0 79.744 62.016 145.088 140.416 150.4l10.368 0.32v64a214.784 214.784 0 0 1-214.4-202.944l-0.384-11.776h64z" p-id="1062" fill="#1296db"></path></svg>